<?xml version="1.0" encoding="UTF-8"?>
<!DOCTYPE svg PUBLIC "-//W3C//DTD SVG 1.1//EN" "http://www.w3.org/Graphics/SVG/1.1/DTD/svg11.dtd">
<!-- Creator: CorelDRAW -->
<svg xmlns="http://www.w3.org/2000/svg" xml:space="preserve" width="86.656mm" height="89.5168mm" style="shape-rendering:geometricPrecision; text-rendering:geometricPrecision; image-rendering:optimizeQuality; fill-rule:evenodd; clip-rule:evenodd"
viewBox="0 0 77.9451 80.5183"
 xmlns:xlink="http://www.w3.org/1999/xlink">
 <defs>
  <style type="text/css">
   <![CDATA[
    .fil0 {fill:#1F1A17}
    .fil1 {fill:#E77817}
    .fil2 {fill:#1F1A17;fill-rule:nonzero}
    .fil3 {fill:#E77817;fill-rule:nonzero}
   ]]>
  </style>
 </defs>
 <g id="Слой_x0020_1">
  <metadata id="CorelCorpID_0Corel-Layer"/>
  <g id="_136653360">
   <g>
    <path id="_136654488" class="fil0" d="M23.2706 35.9577l12.7552 -8.45509c0.171171,0.510543 0.520258,0.938874 0.973684,1.21178l-12.8983 8.54962 -0.830577 -1.30631z"/>
    <path id="_136654584" class="fil1" d="M40.2418 24.9985c0.365997,0.398199 0.590237,0.92889 0.592396,1.51229 0.00449739,1.24119 -0.99815,2.25112 -2.23934,2.25562 -1.24128,0.00449739 -2.25112,-0.99806 -2.25571,-2.23934 -0.00368786,-1.0299 0.686121,-1.90051 1.63021,-2.16963l3.70135 -13.0114 1.25387 0.220462 -2.68278 13.432z"/>
    <path id="_136654632" class="fil0" d="M62.5794 16.4201c2.00475,3.70603 2.78082,6.91059 2.85998,10.5318 0.0329209,1.51175 0.150842,3.04509 -0.143557,4.79952 -0.587359,3.5014 -2.586,7.20481 -5.09464,10.56 -3.55734,4.75787 -8.45626,8.7529 -14.5299,9.93671 -1.27366,0.261298 -2.47527,0.475913 -3.41855,0.70492 -1.82423,0.252573 -3.70252,0.319404 -5.61328,0.179626 -8.69714,-0.63602 -16.1118,-5.38112 -20.4838,-12.1964 5.58297,4.84045 13.3897,11.9798 20.7911,8.49196 3.8995,-1.83754 4.97834,-6.95593 7.11442,-9.13446 1.4881,-1.51778 2.97952,-2.14633 3.64639,-2.84505 0.872043,-0.913419 2.2692,-2.4795 3.00596,-4.20038 0.92988,-2.17161 3.10302,-7.11028 5.11281,-8.30577 1.69722,-1.00966 1.69336,-0.287383 1.97192,1.43251 0.450188,2.59247 -1.58641,6.06032 -2.8643,8.23319 -0.450908,0.766894 -3.31349,4.72037 -2.21154,5.02736 1.21546,0.338743 2.08229,-1.09718 2.59319,-1.71278 1.34679,-1.62266 3.90841,-2.42643 4.5751,-2.9716 0.0384077,-1.60809 0.091117,-3.17372 2.05998,-6.34932 -0.352055,-2.603 -0.784524,-3.0629 0.00242859,-5.5057 -0.969367,-1.95897 -1.28643,-2.65598 -1.11778,-4.41715 0.0725878,-0.758349 0.177467,-2.32695 0.907573,-2.42229 0.277039,-0.036069 0.558935,0.027524 0.836424,0.163345z"/>
    <path id="_136654656" class="fil1" d="M14.585 36.7843c-2.00475,-3.70603 -2.78082,-6.91059 -2.85989,-10.5317 -0.0330108,-1.51175 -0.150842,-3.04509 0.143467,-4.79952 0.587449,-3.50149 2.58609,-7.20481 5.09473,-10.56 3.55734,-4.75787 8.45617,-8.7529 14.5299,-9.93662 1.27366,-0.261298 2.47527,-0.475913 3.41846,-0.70492 1.82432,-0.252573 3.70252,-0.319404 5.61337,-0.179716 8.69705,0.63602 16.1118,5.38112 20.4837,12.1965 -5.58297,-4.84054 -13.3897,-11.9798 -20.7911,-8.49205 -3.89941,1.83763 -4.97834,6.95593 -7.11433,9.13446 -1.4881,1.51778 -2.97961,2.14642 -3.64648,2.84505 -0.871953,0.913419 -2.26911,2.47959 -3.00596,4.20038 -0.92988,2.17161 -3.10302,7.11028 -5.11281,8.30586 -1.69713,1.00966 -1.69336,0.287293 -1.97192,-1.43251 -0.450098,-2.59247 1.5865,-6.06032 2.8643,-8.23319 0.450998,-0.766894 3.31349,-4.72046 2.21163,-5.02736 -1.21555,-0.338743 -2.08229,1.09718 -2.59328,1.71269 -1.3467,1.62266 -3.90841,2.42643 -4.5751,2.97169 -0.0383177,1.608 -0.091117,3.17372 -2.05989,6.34923 0.352055,2.60309 0.784524,3.06299 -0.00242859,5.5057 0.969277,1.95906 1.28643,2.65598 1.11769,4.41715 -0.0725878,0.758439 -0.177467,2.32695 -0.907573,2.42238 -0.277039,0.036069 -0.558845,-0.027614 -0.836424,-0.163435z"/>
    <path id="_136653888" class="fil1" d="M50.9445 5.27876c0.450998,0.260399 0.605528,0.837054 0.345219,1.28805 -0.260489,0.451088 -0.837143,0.605528 -1.28814,0.345129 -0.450908,-0.260309 -0.605528,-0.836964 -0.345039,-1.28805 0.260309,-0.450998 0.837054,-0.605528 1.28796,-0.345129z"/>
    <path id="_136652688" class="fil1" d="M59.9664 14.3463c0.260489,0.450998 0.105958,1.02765 -0.345039,1.28814 -0.451088,0.260309 -1.02765,0.105779 -1.28814,-0.345219 -0.260309,-0.450908 -0.105779,-1.02765 0.345219,-1.28796 0.450998,-0.260489 1.02765,-0.105868 1.28796,0.345039z"/>
    <path id="_136652544" class="fil1" d="M26.1258 48.0164c-0.450908,-0.260309 -0.605528,-0.837054 -0.345129,-1.28796 0.260399,-0.451088 0.836964,-0.605528 1.28796,-0.345219 0.451088,0.260399 0.605528,0.837054 0.345219,1.28814 -0.260399,0.450908 -0.837054,0.605348 -1.28805,0.345039z"/>
    <path id="_136652712" class="fil1" d="M17.1038 38.9489c-0.260309,-0.450998 -0.105779,-1.02765 0.345129,-1.28805 0.450998,-0.260399 1.02765,-0.105868 1.28805,0.345129 0.260399,0.450998 0.105868,1.02765 -0.345129,1.28796 -0.450908,0.260489 -1.02756,0.105958 -1.28805,-0.345039z"/>
   </g>
   <g>
    <path id="_136652520" class="fil2" d="M14.3414 58.5756l-2.3086 0 0 3.96732 -0.598332 0 0 -4.49964 2.90693 0 0 0.532311zm3.52379 2.23844c0,0.274431 -0.0392172,0.524035 -0.117652,0.750974 -0.0783445,0.226938 -0.18979,0.418797 -0.332177,0.575576 -0.133033,0.148594 -0.289812,0.264087 -0.470337,0.345579 -0.180525,0.0814926 -0.371394,0.122779 -0.572517,0.122779 -0.175398,0 -0.334246,-0.0196086 -0.476543,-0.0577464 -0.141398,-0.0382278 -0.285764,-0.0969636 -0.433278,-0.177467l0 1.41425 -0.56838 0 0 -4.62025 0.56838 0 0 0.352775c0.150572,-0.126916 0.320844,-0.233145 0.509554,-0.318775 0.187721,-0.0856302 0.388934,-0.127906 0.60247,-0.127906 0.407463,0 0.724169,0.153721 0.950028,0.461072 0.226938,0.306362 0.340452,0.733434 0.340452,1.27915zm-0.585919 0.015471c0,-0.407463 -0.0691698,-0.711756 -0.208409,-0.912879 -0.139239,-0.201213 -0.352775,-0.302314 -0.640608,-0.302314 -0.163975,0 -0.328039,0.0350796 -0.493093,0.106318 -0.165054,0.0700693 -0.322822,0.162985 -0.474474,0.277489l0 1.91247c0.160916,0.0732174 0.300156,0.122779 0.415738,0.148504 0.115493,0.025815 0.247536,0.0392172 0.394061,0.0392172 0.316616,0 0.563163,-0.107308 0.74063,-0.320844 0.177377,-0.213446 0.266155,-0.529162 0.266155,-0.947959zm4.39026 -1.66178l-1.97022 4.62025 -0.605528 0 0.627206 -1.40804 -1.34517 -3.21221 0.615782 0 1.03674 2.50253 1.046 -2.50253 0.595184 0zm3.56922 3.3752l-0.56838 0 0 -2.88525 -1.68868 0 0 2.88525 -0.56838 0 0 -3.3752 2.82544 0 0 3.3752zm3.94358 0l-0.56838 0 0 -2.88525 -1.68868 0 0 2.88525 -0.56838 0 0 -3.3752 2.82544 0 0 3.3752zm3.74138 0l-0.565321 0 0 -0.358981c-0.0505506,0.0340002 -0.118641,0.0814926 -0.204271,0.143377 -0.0855403,0.0608946 -0.168112,0.110366 -0.248526,0.146525 -0.0949848,0.046413 -0.204271,0.0845509 -0.32705,0.116572 -0.122779,0.030942 -0.266155,0.046413 -0.432199,0.046413 -0.303304,0 -0.561184,-0.101101 -0.772651,-0.302314 -0.211467,-0.201123 -0.317695,-0.458014 -0.317695,-0.770492 0,-0.255901 0.0546882,-0.463231 0.165054,-0.620999 0.109286,-0.157858 0.266155,-0.282706 0.469347,-0.373463 0.205261,-0.0907573 0.452797,-0.151652 0.74063,-0.184663 0.287833,-0.0319314 0.597253,-0.0556776 0.927361,-0.072228l0 -0.0876091c0,-0.128985 -0.0226668,-0.236293 -0.0680904,-0.320844 -0.0453337,-0.0845509 -0.110366,-0.151652 -0.194917,-0.200134 -0.0805032,-0.046413 -0.177467,-0.077355 -0.289902,-0.0938155 -0.112435,-0.015471 -0.231076,-0.0237462 -0.353854,-0.0237462 -0.148504,0 -0.314547,0.0196086 -0.49822,0.0587359 -0.183583,0.0392172 -0.372384,0.0969636 -0.56838,0.17126l-0.0298626 0 0 -0.577644c0.110366,-0.0299526 0.271282,-0.0629634 0.480681,-0.0990324 0.209398,-0.036069 0.415738,-0.0546882 0.61893,-0.0546882 0.238272,0 0.444612,0.0196086 0.620999,0.0588258 0.176387,0.0392172 0.329029,0.106228 0.458014,0.201123 0.126826,0.0928261 0.22379,0.212546 0.289812,0.360061 0.067101,0.146435 0.100112,0.329029 0.100112,0.546702l0 2.29106zm-0.565321 -0.831387l0 -0.939774c-0.173329,0.010344 -0.377511,0.0247356 -0.611734,0.0453337 -0.235123,0.0196086 -0.420865,0.0495612 -0.558036,0.087699 -0.162985,0.046413 -0.295029,0.118641 -0.39613,0.215605 -0.100022,0.098043 -0.150572,0.233145 -0.150572,0.404405 0,0.192848 0.0588258,0.338293 0.175308,0.436336 0.116572,0.0979531 0.295029,0.146435 0.534379,0.146435 0.200134,0 0.382728,-0.0391273 0.547782,-0.116572 0.165054,-0.077355 0.317695,-0.170181 0.459003,-0.279468zm6.88154 0.831387l-0.742698 0 -1.40193 -1.54737 -0.30942 0 0 1.54737 -0.56838 0 0 -3.3752 0.56838 0 0 1.45652c0.187721,0 0.338293,-0.0340902 0.453876,-0.101101 0.114503,-0.0680904 0.212457,-0.176387 0.29296,-0.324981 0.0277938,-0.0545983 0.0556776,-0.112435 0.0824821,-0.174319 0.0278838,-0.0608047 0.0546882,-0.11963 0.0805032,-0.176387 0.104159,-0.227928 0.235213,-0.398199 0.392982,-0.510633 0.156779,-0.112435 0.382728,-0.169102 0.676677,-0.169102l0.259949 0 0 0.489945 -0.250594 0c-0.158938,0 -0.283695,0.0340902 -0.373463,0.101101 -0.0897678,0.0670111 -0.17126,0.185652 -0.243399,0.354844 -0.0805032,0.18979 -0.166133,0.331098 -0.254822,0.424014 -0.0897678,0.0938155 -0.185652,0.164964 -0.285764,0.213536l1.62266 1.79176zm3.49384 -1.68661c0,0.55084 -0.141308,0.985197 -0.422934,1.30289 -0.281626,0.318685 -0.660216,0.477622 -1.1337,0.477622 -0.476543,0 -0.856122,-0.158938 -1.13676,-0.477622 -0.281626,-0.317695 -0.421855,-0.752053 -0.421855,-1.30289 0,-0.549761 0.140229,-0.984118 0.421855,-1.30388 0.280637,-0.318685 0.660216,-0.478612 1.13676,-0.478612 0.473485,0 0.852075,0.159927 1.1337,0.478612 0.281626,0.319764 0.422934,0.754122 0.422934,1.30388zm-0.585919 0c0,-0.436336 -0.0856302,-0.761228 -0.256891,-0.973774 -0.171171,-0.212457 -0.409532,-0.318775 -0.713825,-0.318775 -0.307351,0 -0.546702,0.106318 -0.716883,0.318775 -0.170181,0.212546 -0.255811,0.537438 -0.255811,0.973774 0,0.422934 0.0856302,0.743778 0.256801,0.962441 0.17126,0.218753 0.410611,0.328039 0.715894,0.328039 0.302314,0 0.539506,-0.108297 0.711756,-0.324891 0.17234,-0.216684 0.25896,-0.538517 0.25896,-0.965589zm4.65749 1.68661l-0.562173 0 0 -2.66551 -0.839752 1.73509 -0.422934 0 -0.834535 -1.73509 0 2.66551 -0.532221 0 0 -3.3752 0.685941 0 0.919176 1.88872 0.888144 -1.88872 0.698354 0 0 3.3752zm3.94367 0l-0.56838 0 0 -2.88525 -1.68868 0 0 2.88525 -0.56838 0 0 -3.3752 2.82544 0 0 3.3752zm3.74138 0l-0.565321 0 0 -0.358981c-0.0505506,0.0340002 -0.118641,0.0814926 -0.204271,0.143377 -0.0855403,0.0608946 -0.168112,0.110366 -0.248526,0.146525 -0.0949848,0.046413 -0.204271,0.0845509 -0.32705,0.116572 -0.122779,0.030942 -0.266155,0.046413 -0.432199,0.046413 -0.303304,0 -0.561184,-0.101101 -0.772651,-0.302314 -0.211467,-0.201123 -0.317695,-0.458014 -0.317695,-0.770492 0,-0.255901 0.0546882,-0.463231 0.165054,-0.620999 0.109286,-0.157858 0.266155,-0.282706 0.469347,-0.373463 0.205261,-0.0907573 0.452797,-0.151652 0.74063,-0.184663 0.287833,-0.0319314 0.597253,-0.0556776 0.927361,-0.072228l0 -0.0876091c0,-0.128985 -0.0226668,-0.236293 -0.0680904,-0.320844 -0.0453337,-0.0845509 -0.110366,-0.151652 -0.194917,-0.200134 -0.0805032,-0.046413 -0.177467,-0.077355 -0.289902,-0.0938155 -0.112435,-0.015471 -0.231076,-0.0237462 -0.353854,-0.0237462 -0.148504,0 -0.314547,0.0196086 -0.49822,0.0587359 -0.183583,0.0392172 -0.372384,0.0969636 -0.56838,0.17126l-0.0298626 0 0 -0.577644c0.110366,-0.0299526 0.271282,-0.0629634 0.480681,-0.0990324 0.209398,-0.036069 0.415738,-0.0546882 0.61893,-0.0546882 0.238272,0 0.444612,0.0196086 0.620999,0.0588258 0.176387,0.0392172 0.329029,0.106228 0.458014,0.201123 0.126826,0.0928261 0.22379,0.212546 0.289812,0.360061 0.067101,0.146435 0.100112,0.329029 0.100112,0.546702l0 2.29106zm-0.565321 -0.831387l0 -0.939774c-0.173329,0.010344 -0.377511,0.0247356 -0.611734,0.0453337 -0.235123,0.0196086 -0.420865,0.0495612 -0.558036,0.087699 -0.162985,0.046413 -0.295029,0.118641 -0.39613,0.215605 -0.100022,0.098043 -0.150572,0.233145 -0.150572,0.404405 0,0.192848 0.0588258,0.338293 0.175308,0.436336 0.116572,0.0979531 0.295029,0.146435 0.534379,0.146435 0.200134,0 0.382728,-0.0391273 0.547782,-0.116572 0.165054,-0.077355 0.317695,-0.170181 0.459003,-0.279468zm4.48524 0.831387l-0.56838 0 0 -1.51949 -1.68868 0 0 1.51949 -0.56838 0 0 -3.3752 0.56838 0 0 1.36577 1.68868 0 0 -1.36577 0.56838 0 0 3.3752zm3.96211 0l-0.562173 0 0 -2.53554 -1.7681 2.53554 -0.513691 0 0 -3.3752 0.562173 0 0 2.49938 1.74948 -2.49938 0.532311 0 0 3.3752zm3.9622 0l-0.562173 0 0 -2.53554 -1.7681 2.53554 -0.513691 0 0 -3.3752 0.562173 0 0 2.49938 1.74948 -2.49938 0.532311 0 0 3.3752zm-0.322912 -4.7049c-0.010254,0.298087 -0.104159,0.531231 -0.282616,0.698354 -0.178456,0.167123 -0.437326,0.250684 -0.777778,0.250684 -0.341442,0 -0.600401,-0.0835614 -0.778857,-0.250684 -0.178456,-0.167123 -0.272272,-0.400267 -0.282616,-0.698354l0.51684 0c0.0020688,0.211467 0.0484818,0.365188 0.140229,0.459003 0.0918366,0.0948949 0.226938,0.142387 0.404405,0.142387 0.178456,0 0.313558,-0.046413 0.404405,-0.139239 0.0907573,-0.0928261 0.13717,-0.246547 0.139239,-0.462151l0.51675 0z"/>
    <path id="_136652472" class="fil3" d="M5.47935 71.4379l-1.57615 0 0 -4.93012 -2.32704 0 0 4.93012 -1.57615 0 0 -6.11123 5.47935 0 0 6.11123zm6.28771 -2.36769c0,0.379669 -0.0588258,0.725698 -0.175128,1.03818 -0.116302,0.310949 -0.268944,0.568739 -0.458104,0.771931 -0.196176,0.212906 -0.418887,0.374093 -0.668312,0.483289 -0.249335,0.109286 -0.51558,0.163975 -0.799995,0.163975 -0.263367,0 -0.486078,-0.0280637 -0.669661,-0.0841011 -0.183493,-0.0560374 -0.371214,-0.134472 -0.561814,-0.235303l0 1.92074 -1.47802 0 0 -6.3003 1.47802 0 0 0.480501c0.227028,-0.180705 0.458194,-0.327859 0.694936,-0.439934 0.236742,-0.112075 0.509914,-0.168112 0.819604,-0.168112 0.574406,0 1.02136,0.211557 1.33932,0.631883 0.319494,0.421675 0.479152,1.00031 0.479152,1.73725zm-1.5229 0.0279737c0,-0.448299 -0.0769953,-0.77472 -0.229726,-0.976473 -0.15417,-0.203102 -0.39649,-0.304023 -0.727137,-0.304023 -0.138699,0 -0.282976,0.0210478 -0.43013,0.0630534 -0.148504,0.0434448 -0.289991,0.10371 -0.423114,0.183493l0 2.31867c0.098133,0.037868 0.203192,0.0630534 0.315267,0.0742968 0.112075,0.0112435 0.22415,0.0168202 0.333436,0.0168202 0.390913,0 0.682254,-0.114863 0.874202,-0.343241 0.190599,-0.228377 0.287203,-0.573057 0.287203,-1.0326zm7.3007 0.0364288c0,0.757989 -0.219922,1.35623 -0.662645,1.79194 -0.441284,0.437056 -1.06201,0.655629 -1.86057,0.655629 -0.799995,0 -1.42063,-0.218573 -1.86192,-0.655629 -0.441284,-0.435707 -0.662645,-1.03395 -0.662645,-1.79194 0,-0.762127 0.222711,-1.36172 0.666872,-1.79743 0.444072,-0.434358 1.06336,-0.652931 1.85769,-0.652931 0.804223,0 1.42621,0.220012 1.8648,0.657068 0.439844,0.438585 0.658417,1.03539 0.658417,1.79329zm-1.81847 1.12084c0.0966938,-0.117652 0.168112,-0.259229 0.215785,-0.424463 0.0475823,-0.165324 0.0727677,-0.39514 0.0727677,-0.68792 0,-0.270383 -0.0251854,-0.497411 -0.0742069,-0.680904 -0.0490215,-0.183583 -0.117652,-0.329209 -0.20598,-0.439934 -0.0867996,-0.112075 -0.191948,-0.190509 -0.315177,-0.236742 -0.123318,-0.0476723 -0.256441,-0.0700693 -0.397929,-0.0700693 -0.142927,0 -0.268944,0.0181694 -0.379669,0.0574766 -0.112075,0.037778 -0.217134,0.114863 -0.318055,0.229726 -0.0910271,0.106498 -0.162446,0.253563 -0.215695,0.438495 -0.0532491,0.186372 -0.0798736,0.420326 -0.0798736,0.701952 0,0.252123 0.022397,0.470696 0.0686301,0.655629 0.0476723,0.183583 0.114863,0.332087 0.20598,0.444162 0.0868895,0.107847 0.191948,0.184933 0.313828,0.233954 0.121879,0.0504607 0.260579,0.0742069 0.416098,0.0742069 0.134472,0 0.262018,-0.022397 0.383897,-0.067191 0.121879,-0.0448839 0.225499,-0.121879 0.3096,-0.228377zm8.45931 1.18245l-1.44024 0 0 -2.86088 -1.04654 1.88854 -0.648703 0 -1.04654 -1.88854 0 2.86088 -1.39959 0 0 -4.60928 1.60557 0 1.18524 2.09308 1.18668 -2.09308 1.60413 0 0 4.60928zm4.3586 -1.54395c0,-0.196086 -0.0589158,-0.34459 -0.176567,-0.442723 -0.117652,-0.098043 -0.287203,-0.147065 -0.508564,-0.147065l-0.804133 0 0 1.20206 0.804133 0c0.148504,0 0.267594,-0.0210478 0.3615,-0.0630534 0.0924663,-0.0434448 0.161096,-0.0952546 0.204541,-0.158308 0.0475823,-0.060265 0.0784344,-0.123318 0.0952546,-0.18916 0.0153811,-0.0658417 0.0238361,-0.133033 0.0238361,-0.201753zm1.51868 -0.0111535c0,0.235393 -0.0462331,0.452527 -0.138699,0.651491 -0.0939054,0.200314 -0.215785,0.362849 -0.365638,0.488956 -0.186372,0.151292 -0.37832,0.25779 -0.577285,0.320754 -0.197525,0.0630534 -0.46512,0.0939054 -0.801344,0.0939054l-2.59886 0 0 -4.60928 1.47388 0 0 1.53964 1.12776 0c0.332087,0 0.599681,0.0238361 0.802783,0.0715084 0.204541,0.0475823 0.397929,0.140049 0.581422,0.277399 0.163885,0.123228 0.287203,0.287203 0.371304,0.494533 0.082662,0.20598 0.124668,0.43013 0.124668,0.6711zm1.99504 1.55511l-1.47811 0 0 -4.60928 1.47811 0 0 4.60928zm8.43125 0l-7.03166 0 0 -4.60928 1.47388 0 0 3.59494 1.30433 0 0 -3.59494 1.47379 0 0 3.59494 1.30577 0 0 -3.59494 1.47388 0 0 4.60928zm5.96416 0l-1.47811 0 0 -3.57956 -1.21888 0c-0.00836514,0.20589 -0.0140318,0.365638 -0.0181694,0.479152 -0.00422754,0.113424 -0.0098043,0.245108 -0.0140318,0.39505 -0.0196086,0.441284 -0.0560374,0.799995 -0.112075,1.07595 -0.0546882,0.27605 -0.123318,0.501549 -0.208769,0.676677 -0.082662,0.178007 -0.170901,0.319494 -0.264806,0.423114 -0.0938155,0.10371 -0.18916,0.194737 -0.285764,0.270383 -0.109286,0.0883287 -0.252213,0.158398 -0.428781,0.210208 -0.176477,0.0518099 -0.346029,0.0784344 -0.509914,0.0784344 -0.128895,0 -0.259229,-0.00557676 -0.390913,-0.0153811 -0.131683,-0.0098043 -0.208769,-0.0140318 -0.233954,-0.0140318l0 -1.18245 0.044794 0c0.0112435,0 0.0308521,0.00143916 0.0574766,0.00422754 0.0280637,0.00278838 0.0560374,0.0041376 0.082662,0.0041376 0.0714185,0 0.144276,-0.00692597 0.219922,-0.0209578 0.075736,-0.0125927 0.13735,-0.0434448 0.186372,-0.0896779 0.183493,-0.175128 0.305462,-0.39505 0.367077,-0.658507 0.0616142,-0.264806 0.106498,-0.65428 0.134472,-1.17265 0.0098043,-0.190509 0.0210478,-0.410431 0.0322013,-0.655629 0.0112435,-0.246547 0.0210478,-0.525385 0.0280637,-0.837773l4.01113 0 0 4.60928zm5.93457 -2.03147l-3.38203 0c0.0224869,0.3615 0.159747,0.63746 0.41331,0.829408 0.252213,0.190509 0.624867,0.287203 1.11805,0.287203 0.312388,0 0.613623,-0.0560374 0.906403,-0.168112 0.29287,-0.113514 0.524035,-0.232605 0.694936,-0.3615l0.163885 0 0 1.18524c-0.334785,0.134562 -0.648613,0.231166 -0.944271,0.291431 -0.295568,0.060265 -0.621989,0.091117 -0.9807,0.091117 -0.924663,0 -1.63354,-0.208769 -2.12672,-0.623518 -0.491744,-0.416098 -0.738291,-1.00867 -0.738291,-1.77782 0,-0.760778 0.232515,-1.36325 0.699074,-1.80876 0.466559,-0.444072 1.10681,-0.666872 1.91939,-0.666872 0.749534,0 1.3127,0.190599 1.69102,0.568829 0.37823,0.379669 0.565951,0.924663 0.565951,1.63642l0 0.51693zm-1.46966 -0.865837c-0.00692597,-0.3096 -0.0840112,-0.542205 -0.229726,-0.697725 -0.144276,-0.156869 -0.369865,-0.233954 -0.676677,-0.233954 -0.284415,0 -0.518369,0.0728577 -0.701952,0.221361 -0.183493,0.147154 -0.285764,0.383897 -0.308161,0.710317l1.91652 0zm7.16623 2.89731l-1.47667 0 0 -1.96563 -1.69947 0 0 1.96563 -1.47802 0 0 -4.60928 1.47802 0 0 1.58875 1.69947 0 0 -1.58875 1.47667 0 0 4.60928zm6.04952 0l-1.47667 0 0 -1.96563 -1.69947 0 0 1.96563 -1.47802 0 0 -4.60928 1.47802 0 0 1.58875 1.69947 0 0 -1.58875 1.47667 0 0 4.60928zm4.35851 -1.54395c0,-0.196086 -0.0589158,-0.34459 -0.176567,-0.442723 -0.117652,-0.098043 -0.287203,-0.147065 -0.508564,-0.147065l-0.804133 0 0 1.20206 0.804133 0c0.148504,0 0.267594,-0.0210478 0.3615,-0.0630534 0.0924663,-0.0434448 0.161096,-0.0952546 0.204541,-0.158308 0.0475823,-0.060265 0.0784344,-0.123318 0.0952546,-0.18916 0.0153811,-0.0658417 0.0238361,-0.133033 0.0238361,-0.201753zm1.51868 -0.0111535c0,0.235393 -0.0462331,0.452527 -0.138699,0.651491 -0.0939054,0.200314 -0.215785,0.362849 -0.365638,0.488956 -0.186372,0.151292 -0.37832,0.25779 -0.577285,0.320754 -0.197525,0.0630534 -0.46512,0.0939054 -0.801344,0.0939054l-2.59886 0 0 -4.60928 1.47388 0 0 1.53964 1.12776 0c0.332087,0 0.599681,0.0238361 0.802783,0.0715084 0.204541,0.0475823 0.397929,0.140049 0.581422,0.277399 0.163885,0.123228 0.287203,0.287203 0.371304,0.494533 0.082662,0.20598 0.124668,0.43013 0.124668,0.6711zm1.99504 1.55511l-1.47811 0 0 -4.60928 1.47811 0 0 4.60928zm5.9388 -2.03147l-3.38203 0c0.0224869,0.3615 0.159747,0.63746 0.41331,0.829408 0.252213,0.190509 0.624867,0.287203 1.11805,0.287203 0.312388,0 0.613623,-0.0560374 0.906403,-0.168112 0.29287,-0.113514 0.524035,-0.232605 0.694936,-0.3615l0.163885 0 0 1.18524c-0.334785,0.134562 -0.648613,0.231166 -0.944271,0.291431 -0.295568,0.060265 -0.621989,0.091117 -0.9807,0.091117 -0.924663,0 -1.63354,-0.208769 -2.12672,-0.623518 -0.491744,-0.416098 -0.738291,-1.00867 -0.738291,-1.77782 0,-0.760778 0.232515,-1.36325 0.699074,-1.80876 0.466559,-0.444072 1.10681,-0.666872 1.91939,-0.666872 0.749534,0 1.3127,0.190599 1.69102,0.568829 0.37823,0.379669 0.565951,0.924663 0.565951,1.63642l0 0.51693zm-1.46966 -0.865837c-0.00692597,-0.3096 -0.0840112,-0.542205 -0.229726,-0.697725 -0.144276,-0.156869 -0.369865,-0.233954 -0.676677,-0.233954 -0.284415,0 -0.518369,0.0728577 -0.701952,0.221361 -0.183493,0.147154 -0.285764,0.383897 -0.308161,0.710317l1.91652 0z"/>
    <path id="_136649952" class="fil3" d="M15.4727 76.7664l-1.46966 0 0 3.60762 -1.47802 0 0 -3.60762 -1.46966 0 0 -1.00166 4.41733 0 0 1.00166zm5.27759 1.57615l-3.38203 0c0.0224869,0.3615 0.159747,0.63746 0.41331,0.829408 0.252213,0.190509 0.624867,0.287203 1.11805,0.287203 0.312388,0 0.613623,-0.0560374 0.906403,-0.168112 0.29287,-0.113514 0.524035,-0.232605 0.694936,-0.3615l0.163885 0 0 1.18524c-0.334785,0.134562 -0.648613,0.231166 -0.944271,0.291431 -0.295568,0.060265 -0.621989,0.091117 -0.9807,0.091117 -0.924663,0 -1.63354,-0.208769 -2.12672,-0.623518 -0.491744,-0.416098 -0.738291,-1.00867 -0.738291,-1.77782 0,-0.760778 0.232515,-1.36325 0.699074,-1.80876 0.466559,-0.444072 1.10681,-0.666872 1.91939,-0.666872 0.749534,0 1.3127,0.190599 1.69102,0.568829 0.37823,0.379669 0.565951,0.924663 0.565951,1.63642l0 0.51693zm-1.46966 -0.865837c-0.00692597,-0.3096 -0.0840112,-0.542205 -0.229726,-0.697725 -0.144276,-0.156869 -0.369865,-0.233954 -0.676677,-0.233954 -0.284415,0 -0.518369,0.0728577 -0.701952,0.221361 -0.183493,0.147154 -0.285764,0.383897 -0.308161,0.710317l1.91652 0zm7.33155 2.89731l-1.72466 0 -0.984928 -1.37863 -1.01011 1.37863 -1.69102 0 1.81847 -2.30329 -1.78906 -2.30599 1.72322 0 0.969547 1.3547 0.972245 -1.3547 1.69524 0 -1.79329 2.26956 1.81434 2.33972zm5.4583 0l-1.47667 0 0 -1.96563 -1.69947 0 0 1.96563 -1.47802 0 0 -4.60928 1.47802 0 0 1.58875 1.69947 0 0 -1.58875 1.47667 0 0 4.60928zm6.10691 -2.30329c0,0.757989 -0.219922,1.35623 -0.662645,1.79194 -0.441284,0.437056 -1.06201,0.655629 -1.86057,0.655629 -0.799995,0 -1.42063,-0.218573 -1.86192,-0.655629 -0.441284,-0.435707 -0.662645,-1.03395 -0.662645,-1.79194 0,-0.762127 0.222711,-1.36172 0.666872,-1.79743 0.444072,-0.434358 1.06336,-0.652931 1.85769,-0.652931 0.804223,0 1.42621,0.220012 1.8648,0.657068 0.439844,0.438585 0.658417,1.03539 0.658417,1.79329zm-1.81847 1.12084c0.0966938,-0.117652 0.168112,-0.259229 0.215785,-0.424463 0.0475823,-0.165324 0.0727677,-0.39514 0.0727677,-0.68792 0,-0.270383 -0.0251854,-0.497411 -0.0742069,-0.680904 -0.0490215,-0.183583 -0.117652,-0.329209 -0.20598,-0.439934 -0.0867996,-0.112075 -0.191948,-0.190509 -0.315177,-0.236742 -0.123318,-0.0476723 -0.256441,-0.0700693 -0.397929,-0.0700693 -0.142927,0 -0.268944,0.0181694 -0.379669,0.0574766 -0.112075,0.037778 -0.217134,0.114863 -0.318055,0.229726 -0.0910271,0.106498 -0.162446,0.253563 -0.215695,0.438495 -0.0532491,0.186372 -0.0798736,0.420326 -0.0798736,0.701952 0,0.252123 0.022397,0.470696 0.0686301,0.655629 0.0476723,0.183583 0.114863,0.332087 0.20598,0.444162 0.0868895,0.107847 0.191948,0.184933 0.313828,0.233954 0.121879,0.0504607 0.260579,0.0742069 0.416098,0.0742069 0.134472,0 0.262018,-0.022397 0.383897,-0.067191 0.121879,-0.0448839 0.225499,-0.121879 0.3096,-0.228377zm7.44641 1.18245l-1.47811 0 0 -3.57956 -1.21888 0c-0.00836514,0.20589 -0.0140318,0.365638 -0.0181694,0.479152 -0.00422754,0.113424 -0.0098043,0.245108 -0.0140318,0.39505 -0.0196086,0.441284 -0.0560374,0.799995 -0.112075,1.07595 -0.0546882,0.27605 -0.123318,0.501549 -0.208769,0.676677 -0.082662,0.178007 -0.170901,0.319494 -0.264806,0.423114 -0.0938155,0.10371 -0.18916,0.194737 -0.285764,0.270383 -0.109286,0.0883287 -0.252213,0.158398 -0.428781,0.210208 -0.176477,0.0518099 -0.346029,0.0784344 -0.509914,0.0784344 -0.128895,0 -0.259229,-0.00557676 -0.390913,-0.0153811 -0.131683,-0.0098043 -0.208769,-0.0140318 -0.233954,-0.0140318l0 -1.18245 0.044794 0c0.0112435,0 0.0308521,0.00143916 0.0574766,0.00422754 0.0280637,0.00278838 0.0560374,0.0041376 0.082662,0.0041376 0.0714185,0 0.144276,-0.00692597 0.219922,-0.0209578 0.075736,-0.0125927 0.13735,-0.0434448 0.186372,-0.0896779 0.183493,-0.175128 0.305462,-0.39505 0.367077,-0.658507 0.0616142,-0.264806 0.106498,-0.65428 0.134472,-1.17265 0.0098043,-0.190509 0.0210478,-0.410431 0.0322013,-0.655629 0.0112435,-0.246547 0.0210478,-0.525385 0.0280637,-0.837773l4.01113 0 0 4.60928zm6.10691 -2.30329c0,0.757989 -0.219922,1.35623 -0.662645,1.79194 -0.441284,0.437056 -1.06201,0.655629 -1.86057,0.655629 -0.799995,0 -1.42063,-0.218573 -1.86192,-0.655629 -0.441284,-0.435707 -0.662645,-1.03395 -0.662645,-1.79194 0,-0.762127 0.222711,-1.36172 0.666872,-1.79743 0.444072,-0.434358 1.06336,-0.652931 1.85769,-0.652931 0.804223,0 1.42621,0.220012 1.8648,0.657068 0.439844,0.438585 0.658417,1.03539 0.658417,1.79329zm-1.81847 1.12084c0.0966938,-0.117652 0.168112,-0.259229 0.215785,-0.424463 0.0475823,-0.165324 0.0727677,-0.39514 0.0727677,-0.68792 0,-0.270383 -0.0251854,-0.497411 -0.0742069,-0.680904 -0.0490215,-0.183583 -0.117652,-0.329209 -0.20598,-0.439934 -0.0867996,-0.112075 -0.191948,-0.190509 -0.315177,-0.236742 -0.123318,-0.0476723 -0.256441,-0.0700693 -0.397929,-0.0700693 -0.142927,0 -0.268944,0.0181694 -0.379669,0.0574766 -0.112075,0.037778 -0.217134,0.114863 -0.318055,0.229726 -0.0910271,0.106498 -0.162446,0.253563 -0.215695,0.438495 -0.0532491,0.186372 -0.0798736,0.420326 -0.0798736,0.701952 0,0.252123 0.022397,0.470696 0.0686301,0.655629 0.0476723,0.183583 0.114863,0.332087 0.20598,0.444162 0.0868895,0.107847 0.191948,0.184933 0.313828,0.233954 0.121879,0.0504607 0.260579,0.0742069 0.416098,0.0742069 0.134472,0 0.262018,-0.022397 0.383897,-0.067191 0.121879,-0.0448839 0.225499,-0.121879 0.3096,-0.228377zm6.60432 -2.40133l-2.2486 0 0 3.58379 -1.47802 0 0 -4.60928 3.72662 0 0 1.02549zm5.39812 3.58379l-1.43179 0 0 -2.82022 -2.0035 2.82022 -1.22302 0 0 -4.60928 1.43323 0 0 2.52456 1.8549 -2.52456 1.37017 0 0 4.60928zm6.05375 0l-1.43179 0 0 -2.82022 -2.0035 2.82022 -1.22302 0 0 -4.60928 1.43323 0 0 2.52456 1.8549 -2.52456 1.37017 0 0 4.60928z"/>
   </g>
  </g>
 </g>
</svg>
