<?xml version="1.0" encoding="UTF-8"?>
<!DOCTYPE svg PUBLIC "-//W3C//DTD SVG 1.1//EN" "http://www.w3.org/Graphics/SVG/1.1/DTD/svg11.dtd">
<!-- Creator: CorelDRAW -->
<svg xmlns="http://www.w3.org/2000/svg" xml:space="preserve" width="175.025mm" height="46.6294mm" style="shape-rendering:geometricPrecision; text-rendering:geometricPrecision; image-rendering:optimizeQuality; fill-rule:evenodd; clip-rule:evenodd"
viewBox="0 0 175.025 46.6294"
 xmlns:xlink="http://www.w3.org/1999/xlink">
 <defs>
  <style type="text/css">
   <![CDATA[
    .fil0 {fill:#1F1A17}
    .fil1 {fill:#E77817}
    .fil2 {fill:#1F1A17;fill-rule:nonzero}
    .fil3 {fill:#E77817;fill-rule:nonzero}
   ]]>
  </style>
 </defs>
 <g id="Слой_x0020_1">
  <metadata id="CorelCorpID_0Corel-Layer"/>
  <g id="_136654416">
   <path id="_136655064" class="fil0" d="M10.1291 31.4074l11.1411 -7.3852c0.1496,0.4459 0.4545,0.8201 0.8505,1.0585l-11.2661 7.4677 -0.7255 -1.141z"/>
   <path id="_136649280" class="fil1" d="M24.9528 21.8351c0.3196,0.3477 0.5155,0.8113 0.5173,1.3209 0.004,1.0841 -0.8718,1.9662 -1.9559,1.9702 -1.0842,0.0039 -1.9663,-0.8718 -1.9702,-1.956 -0.0033,-0.899601 0.5992,-1.66 1.4239,-1.8951l3.2329 -11.3649 1.0952 0.1926 -2.3432 11.7323z"/>
   <path id="_136650936" class="fil2" d="M59.9232 12.9225l-3.5463 0 0 6.0943 -0.919001 0 0 -6.912 4.4653 0 0 0.8177zm5.4129 3.4385c0,0.4215 -0.0602,0.805 -0.1806,1.1536 -0.1204,0.3486 -0.2916,0.6434 -0.5102,0.884201 -0.2044,0.2282 -0.4453,0.4057 -0.7226,0.5308 -0.2773,0.1252 -0.5705,0.1886 -0.879401,0.1886 -0.2694,0 -0.5135,-0.0301 -0.7321,-0.0887001 -0.2171,-0.0587 -0.439,-0.149 -0.6656,-0.2726l0 2.1725 -0.8731 0 0 -7.0974 0.8731 0 0 0.542c0.2314,-0.1949 0.4929,-0.3581 0.7828,-0.4897 0.2884,-0.1315 0.5974,-0.1965 0.925401,-0.1965 0.6259,0 1.1124,0.2361 1.4594,0.7084 0.3486,0.4706 0.5229,1.1266 0.5229,1.9648zm-0.900001 0.0238c0,-0.6259 -0.1062,-1.0934 -0.3201,-1.4023 -0.2139,-0.309 -0.5419,-0.4643 -0.984001,-0.4643 -0.252,0 -0.5039,0.0538 -0.7574,0.1632 -0.2536,0.1077 -0.496,0.2503 -0.729,0.4262l0 2.9379c0.2472,0.1125 0.4612,0.1885 0.6386,0.2281 0.1775,0.0396 0.3803,0.0602 0.6053,0.0602 0.4865,0 0.8652,-0.1648 1.1378,-0.4928 0.2725,-0.328 0.4088,-0.8129 0.4088,-1.4562zm6.744 -2.5528l-3.0265 7.0974 -0.930201 0 0.963401 -2.163 -2.0663 -4.9344 0.946001 0 1.5925 3.8442 1.6068 -3.8442 0.914301 0zm5.4827 5.1848l-0.8731 0 0 -4.4321 -2.594 0 0 4.4321 -0.8731 0 0 -5.1848 4.3402 0 0 5.1848zm6.0579 0l-0.8731 0 0 -4.4321 -2.594 0 0 4.4321 -0.8731 0 0 -5.1848 4.3402 0 0 5.1848zm5.7473 0l-0.8683 0 0 -0.5514c-0.0777,0.0523 -0.1822,0.1251 -0.3138,0.2202 -0.1315,0.0935001 -0.2582,0.1696 -0.3818,0.225 -0.1458,0.0713 -0.3138,0.13 -0.5024,0.1791 -0.1885,0.0475 -0.4088,0.0713 -0.6639,0.0713 -0.4659,0 -0.862,-0.1553 -1.1869,-0.4643 -0.3248,-0.309 -0.488,-0.7035 -0.488,-1.1837 0,-0.3929 0.084,-0.7114 0.2535,-0.953901 0.168,-0.2424 0.4089,-0.4342 0.721,-0.5736 0.3153,-0.1395 0.6956,-0.2329 1.1377,-0.2836 0.4421,-0.0492 0.917501,-0.0856 1.4246,-0.111l0 -0.1347c0,-0.198 -0.0349,-0.3628 -0.1046,-0.4928 -0.0697,-0.1299 -0.1695,-0.2329 -0.2995,-0.3074 -0.1236,-0.0713 -0.2725,-0.1188 -0.4452,-0.1442 -0.1728,-0.0237 -0.355,-0.0364 -0.5436,-0.0364 -0.2281,0 -0.4833,0.0301 -0.7653,0.0903001 -0.2821,0.0602 -0.572,0.149 -0.8731,0.263l-0.046 0 0 -0.887301c0.1696,-0.046 0.4168,-0.0967001 0.7384,-0.1521 0.3217,-0.0555 0.6386,-0.084 0.950801,-0.084 0.366,0 0.6829,0.0301 0.953901,0.0903001 0.271,0.0602 0.5055,0.1632 0.7036,0.309 0.1949,0.1426 0.3438,0.3264 0.4452,0.553 0.103,0.225 0.1537,0.5055 0.1537,0.8398l0 3.5194zm-0.8683 -1.2772l0 -1.4435c-0.2662,0.0158 -0.58,0.038 -0.939701,0.0697 -0.3613,0.0301 -0.6465,0.0761 -0.8572,0.1347 -0.2504,0.0713 -0.4532,0.1822 -0.6085,0.3312 -0.1537,0.1505 -0.2314,0.3581 -0.2314,0.6211 0,0.2963 0.0904001,0.5198 0.2694,0.6703 0.1791,0.1505 0.4532,0.225 0.8208,0.225 0.3074,0 0.5879,-0.0602 0.8414,-0.1791 0.2536,-0.1188 0.4881,-0.2614 0.7052,-0.4294zm10.5707 1.2772l-1.1409 0 -2.1534 -2.3769 -0.4754 0 0 2.3769 -0.8731 0 0 -5.1848 0.8731 0 0 2.2375c0.2884,0 0.5197,-0.0523 0.6972,-0.1553 0.1759,-0.1046 0.3264,-0.271 0.45,-0.4992 0.0428,-0.0839 0.0856,-0.1727 0.1268,-0.2678 0.0428,-0.0934001 0.084,-0.1838 0.1236,-0.2709 0.16,-0.3502 0.3613,-0.6117 0.6037,-0.7844 0.2409,-0.1727 0.5879,-0.2599 1.0395,-0.2599l0.3993 0 0 0.7527 -0.385 0c-0.2441,0 -0.4358,0.0523 -0.5736,0.1553 -0.1379,0.103 -0.2631,0.2852 -0.374,0.5451 -0.1236,0.2916 -0.2551,0.5087 -0.3914,0.6513 -0.1379,0.1442 -0.2852,0.2535 -0.4389,0.328l2.4925 2.7524zm5.367 -2.5908c0,0.8462 -0.217,1.5133 -0.6496,2.0013 -0.4326,0.4897 -1.0142,0.7337 -1.7415,0.7337 -0.7321,0 -1.3152,-0.244 -1.7462,-0.7337 -0.4326,-0.488 -0.6481,-1.1551 -0.6481,-2.0013 0,-0.8446 0.2155,-1.5117 0.6481,-2.0029 0.431,-0.4896 1.0141,-0.7353 1.7462,-0.7353 0.7273,0 1.3089,0.2457 1.7415,0.7353 0.4326,0.4912 0.6496,1.1583 0.6496,2.0029zm-0.900001 0c0,-0.6703 -0.1315,-1.1694 -0.3946,-1.4958 -0.263,-0.3265 -0.629,-0.4897 -1.0965,-0.4897 -0.4722,0 -0.8398,0.1632 -1.1013,0.4897 -0.2614,0.3264 -0.393,0.8255 -0.393,1.4958 0,0.6497 0.1316,1.1425 0.3946,1.4784 0.2631,0.336 0.6307,0.5039 1.0997,0.5039 0.4643,0 0.8287,-0.1664 1.0934,-0.4991 0.2646,-0.3328 0.3977,-0.8272 0.3977,-1.4832zm7.1544 2.5908l-0.8636 0 0 -4.0946 -1.2898 2.6653 -0.6497 0 -1.2819 -2.6653 0 4.0946 -0.8177 0 0 -5.1848 1.0538 0 1.4119 2.9014 1.3643 -2.9014 1.0727 0 0 5.1848zm6.0579 0l-0.8731 0 0 -4.4321 -2.594 0 0 4.4321 -0.8731 0 0 -5.1848 4.3402 0 0 5.1848zm5.7473 0l-0.8683 0 0 -0.5514c-0.0777,0.0523 -0.1822,0.1251 -0.3138,0.2202 -0.1315,0.0935001 -0.2582,0.1696 -0.3818,0.225 -0.1458,0.0713 -0.3138,0.13 -0.5024,0.1791 -0.1885,0.0475 -0.4088,0.0713 -0.6639,0.0713 -0.4659,0 -0.862,-0.1553 -1.1869,-0.4643 -0.3248,-0.309 -0.488,-0.7035 -0.488,-1.1837 0,-0.3929 0.084,-0.7114 0.2535,-0.953901 0.168,-0.2424 0.4089,-0.4342 0.721,-0.5736 0.3153,-0.1395 0.6956,-0.2329 1.1377,-0.2836 0.4421,-0.0492 0.917501,-0.0856 1.4246,-0.111l0 -0.1347c0,-0.198 -0.0349,-0.3628 -0.1046,-0.4928 -0.0697,-0.1299 -0.1695,-0.2329 -0.2995,-0.3074 -0.1236,-0.0713 -0.2725,-0.1188 -0.4452,-0.1442 -0.1728,-0.0237 -0.355,-0.0364 -0.5436,-0.0364 -0.2281,0 -0.4833,0.0301 -0.7653,0.0903001 -0.2821,0.0602 -0.572,0.149 -0.8731,0.263l-0.046 0 0 -0.887301c0.1696,-0.046 0.4168,-0.0967001 0.7384,-0.1521 0.3217,-0.0555 0.6386,-0.084 0.950801,-0.084 0.366,0 0.6829,0.0301 0.953901,0.0903001 0.271,0.0602 0.5055,0.1632 0.7036,0.309 0.1949,0.1426 0.3438,0.3264 0.4452,0.553 0.103,0.225 0.1537,0.5055 0.1537,0.8398l0 3.5194zm-0.8683 -1.2772l0 -1.4435c-0.2662,0.0158 -0.58,0.038 -0.939701,0.0697 -0.3613,0.0301 -0.6465,0.0761 -0.8572,0.1347 -0.2504,0.0713 -0.4532,0.1822 -0.6085,0.3312 -0.1537,0.1505 -0.2314,0.3581 -0.2314,0.6211 0,0.2963 0.0904001,0.5198 0.2694,0.6703 0.1791,0.1505 0.4532,0.225 0.8208,0.225 0.3074,0 0.5879,-0.0602 0.8414,-0.1791 0.2536,-0.1188 0.4881,-0.2614 0.7052,-0.4294zm6.8897 1.2772l-0.8731 0 0 -2.3341 -2.594 0 0 2.3341 -0.8731 0 0 -5.1848 0.8731 0 0 2.098 2.594 0 0 -2.098 0.8731 0 0 5.1848zm6.0864 0l-0.8636 0 0 -3.8949 -2.7159 3.8949 -0.7892 0 0 -5.1848 0.8636 0 0 3.8395 2.6875 -3.8395 0.8176 0 0 5.1848zm6.0864 0l-0.8636 0 0 -3.8949 -2.7159 3.8949 -0.7892 0 0 -5.1848 0.8636 0 0 3.8395 2.6875 -3.8395 0.8176 0 0 5.1848zm-0.4959 -7.2273c-0.0159,0.458 -0.1601,0.8161 -0.4342,1.0728 -0.2741,0.2567 -0.6719,0.385 -1.1948,0.385 -0.5245,0 -0.922201,-0.1283 -1.1963,-0.385 -0.2742,-0.2567 -0.4184,-0.6148 -0.4342,-1.0728l0.7939 0c0.0031,0.3249 0.0744,0.561 0.2155,0.7052 0.141,0.1457 0.3486,0.2186 0.6211,0.2186 0.2741,0 0.4817,-0.0713 0.6212,-0.2139 0.1394,-0.1426 0.2107,-0.3787 0.2139,-0.7099l0.7939 0z"/>
   <path id="_136648968" class="fil3" d="M63.709 32.6807l-2.4212 0 0 -7.5733 -3.5746 0 0 7.5733 -2.4212 0 0 -9.38751 8.417 0 0 9.38751zm9.65861 -3.6371c0,0.5832 -0.0904001,1.1148 -0.269,1.5947 -0.1786,0.4778 -0.4132,0.8738 -0.7037,1.1859 -0.3013,0.3271 -0.6435,0.5746 -1.0266,0.7424 -0.3831,0.1679 -0.792,0.2518 -1.2289,0.2518 -0.4046,0 -0.7467,-0.043 -1.0287,-0.1291 -0.2819,-0.0861 -0.5703,-0.2066 -0.863,-0.3615l0 2.9505 -2.2704 0 0 -9.67811 2.2704 0 0 0.7382c0.3487,-0.2776 0.7038,-0.5036 1.0675,-0.6758 0.3637,-0.1721 0.7834,-0.2582 1.259,-0.2582 0.882301,0 1.5689,0.325 2.0574,0.970601 0.4907,0.6478 0.736,1.5366 0.736,2.6686zm-2.3393 0.0431c0,-0.6887 -0.1184,-1.1902 -0.353,-1.5001 -0.2367,-0.312 -0.609,-0.467 -1.1169,-0.467 -0.2131,0 -0.4348,0.0323 -0.6607,0.0969001 -0.2281,0.0667 -0.4455,0.1592 -0.65,0.2819l0 3.5618c0.1507,0.0581 0.3121,0.0968001 0.4843,0.114 0.1721,0.0172 0.3443,0.0258 0.5122,0.0258 0.6004,0 1.048,-0.1764 1.3429,-0.5272 0.2927,-0.3508 0.4412,-0.880201 0.4412,-1.5861zm11.2146 0.0559c0,1.1643 -0.3379,2.0833 -1.0179,2.7526 -0.6779,0.6714 -1.6313,1.0072 -2.858,1.0072 -1.2289,0 -2.1823,-0.3358 -2.8602,-1.0072 -0.6779,-0.6693 -1.018,-1.5883 -1.018,-2.7526 0,-1.1707 0.3422,-2.0918 1.0245,-2.7611 0.6822,-0.6672 1.6334,-1.0029 2.8537,-1.0029 1.2353,0 2.1908,0.3379 2.8644,1.0093 0.6758,0.6736 1.0115,1.5904 1.0115,2.7547zm-2.7934 1.7217c0.1485,-0.1808 0.2582,-0.3981 0.3314,-0.6521 0.0732,-0.2539 0.1119,-0.6069 0.1119,-1.0567 0,-0.4153 -0.0387,-0.764 -0.1141,-1.0459 -0.0753,-0.2819 -0.1807,-0.5057 -0.3163,-0.6758 -0.1334,-0.1721 -0.2949,-0.2926 -0.4842,-0.3637 -0.1894,-0.0731 -0.3939,-0.1076 -0.6112,-0.1076 -0.2196,0 -0.4132,0.028 -0.5833,0.0883001 -0.1721,0.0581 -0.3335,0.1764 -0.4885,0.3529 -0.1399,0.1636 -0.2496,0.3895 -0.3314,0.6736 -0.0818,0.2863 -0.1227,0.6457 -0.1227,1.0782 0,0.3874 0.0344,0.7231 0.1055,1.0072 0.0731,0.282 0.1764,0.5101 0.3163,0.6822 0.1335,0.1658 0.2949,0.2841 0.4821,0.3594 0.1872,0.0775 0.4003,0.1141 0.6392,0.1141 0.2066,0 0.4024,-0.0344 0.5897,-0.1033 0.1872,-0.0689 0.3464,-0.1872 0.4756,-0.3508zm12.9945 1.8164l-2.2124 0 0 -4.3946 -1.6076 2.901 -0.996501 0 -1.6076 -2.901 0 4.3946 -2.1499 0 0 -7.0805 2.4663 0 1.8207 3.2153 1.8228 -3.2153 2.4642 0 0 7.0805zm6.6952 -2.3716c0,-0.3013 -0.0904001,-0.5295 -0.2712,-0.6801 -0.1808,-0.1506 -0.4412,-0.226 -0.7812,-0.226l-1.2353 0 0 1.8465 1.2353 0c0.2281,0 0.4111,-0.0322 0.5552,-0.0968001 0.1421,-0.0667 0.2475,-0.1463 0.3143,-0.2432 0.0731,-0.0925001 0.1205,-0.1894 0.1463,-0.2905 0.0237,-0.1012 0.0366,-0.2045 0.0366,-0.3099zm2.3329 -0.0172c0,0.3615 -0.071,0.6951 -0.2131,1.0007 -0.1442,0.3077 -0.3314,0.5574 -0.5617,0.7511 -0.2862,0.2324 -0.5811,0.396 -0.886701,0.4928 -0.3034,0.0969001 -0.7145,0.1442 -1.231,0.1442l-3.9921 0 0 -7.0805 2.264 0 0 2.3652 1.7324 0c0.5101,0 0.921101,0.0366 1.2332,0.1098 0.3142,0.0731 0.6112,0.2152 0.893101,0.4261 0.2518,0.1894 0.4412,0.4412 0.5703,0.7597 0.127,0.3163 0.1916,0.6607 0.1916,1.0309zm3.0646 2.3888l-2.2705 0 0 -7.0805 2.2705 0 0 7.0805zm12.9514 0l-10.8014 0 0 -7.0805 2.264 0 0 5.5224 2.0036 0 0 -5.5224 2.264 0 0 5.5224 2.0058 0 0 -5.5224 2.264 0 0 7.0805zm9.16161 0l-2.2705 0 0 -5.4987 -1.8723 0c-0.0129,0.3164 -0.0215,0.5617 -0.028,0.7361 -0.0065,0.1743 -0.0151,0.3766 -0.0215,0.6069 -0.0301,0.6779 -0.0861,1.2288 -0.1722,1.6528 -0.0839,0.424 -0.1894,0.7704 -0.3207,1.0395 -0.1269,0.2733 -0.2625,0.4906 -0.4067,0.6499 -0.1442,0.1593 -0.2905,0.2991 -0.439,0.4154 -0.1679,0.1355 -0.3874,0.2431 -0.6586,0.3228 -0.2711,0.0796 -0.5316,0.1205 -0.7834,0.1205 -0.1979,0 -0.3981,-0.0086 -0.6004,-0.0237 -0.2023,-0.015 -0.3207,-0.0215 -0.3594,-0.0215l0 -1.8164 0.0689 0c0.0172,0 0.0473,0.0022 0.0882001,0.0065 0.0431,0.0043 0.0861,0.0064 0.127,0.0064 0.1097,0 0.2217,-0.0107 0.3379,-0.0323 0.1162,-0.0193 0.2109,-0.0667 0.2862,-0.1377 0.2819,-0.269 0.4692,-0.6069 0.5639,-1.0115 0.0946001,-0.4067 0.1635,-1.005 0.2066,-1.8013 0.015,-0.2927 0.0322,-0.6306 0.0495,-1.0072 0.0172,-0.3788 0.0322,-0.807 0.043,-1.287l6.1615 0 0 7.0805zm9.11641 -3.1206l-5.1952 0c0.0344,0.5553 0.2453,0.979201 0.6349,1.2741 0.3874,0.2927 0.959801,0.4412 1.7174,0.4412 0.4799,0 0.942601,-0.0861 1.3924,-0.2583 0.4498,-0.1743 0.8049,-0.3572 1.0674,-0.5552l0.2518 0 0 1.8207c-0.5143,0.2066 -0.996401,0.3551 -1.4505,0.4476 -0.4541,0.0925001 -0.955501,0.1399 -1.5065,0.1399 -1.4204,0 -2.5093,-0.3207 -3.2669,-0.957701 -0.7554,-0.6392 -1.1342,-1.5495 -1.1342,-2.731 0,-1.1686 0.3573,-2.0941 1.074,-2.7784 0.7166,-0.6822 1.7001,-1.0244 2.9484,-1.0244 1.1513,0 2.0165,0.2927 2.5976,0.8737 0.581,0.5833 0.8694,1.4204 0.8694,2.5137l0 0.7941zm-2.2576 -1.33c-0.0107,-0.4756 -0.1291,-0.8328 -0.3529,-1.0717 -0.2217,-0.2411 -0.5682,-0.3594 -1.0395,-0.3594 -0.4369,0 -0.7963,0.1119 -1.0782,0.34 -0.2819,0.226 -0.439,0.5897 -0.4735,1.0911l2.9441 0zm11.0081 4.4506l-2.2683 0 0 -3.0194 -2.6106 0 0 3.0194 -2.2704 0 0 -7.0805 2.2704 0 0 2.4405 2.6106 0 0 -2.4405 2.2683 0 0 7.0805zm9.29281 0l-2.2683 0 0 -3.0194 -2.6106 0 0 3.0194 -2.2704 0 0 -7.0805 2.2704 0 0 2.4405 2.6106 0 0 -2.4405 2.2683 0 0 7.0805zm6.6952 -2.3716c0,-0.3013 -0.0904001,-0.5295 -0.2712,-0.6801 -0.1808,-0.1506 -0.4412,-0.226 -0.7812,-0.226l-1.2353 0 0 1.8465 1.2353 0c0.2281,0 0.4111,-0.0322 0.5552,-0.0968001 0.1421,-0.0667 0.2475,-0.1463 0.3143,-0.2432 0.0731,-0.0925001 0.1205,-0.1894 0.1463,-0.2905 0.0237,-0.1012 0.0366,-0.2045 0.0366,-0.3099zm2.3329 -0.0172c0,0.3615 -0.071,0.6951 -0.2131,1.0007 -0.1442,0.3077 -0.3314,0.5574 -0.5617,0.7511 -0.2862,0.2324 -0.5811,0.396 -0.886701,0.4928 -0.3034,0.0969001 -0.7145,0.1442 -1.231,0.1442l-3.9921 0 0 -7.0805 2.264 0 0 2.3652 1.7324 0c0.5101,0 0.921101,0.0366 1.2332,0.1098 0.3142,0.0731 0.6112,0.2152 0.893101,0.4261 0.2518,0.1894 0.4412,0.4412 0.5703,0.7597 0.127,0.3163 0.1916,0.6607 0.1916,1.0309zm3.0646 2.3888l-2.2705 0 0 -7.0805 2.2705 0 0 7.0805zm9.12281 -3.1206l-5.1952 0c0.0344,0.5553 0.2453,0.979201 0.6349,1.2741 0.3874,0.2927 0.959801,0.4412 1.7174,0.4412 0.4799,0 0.942601,-0.0861 1.3924,-0.2583 0.4498,-0.1743 0.8049,-0.3572 1.0674,-0.5552l0.2518 0 0 1.8207c-0.5143,0.2066 -0.996401,0.3551 -1.4505,0.4476 -0.4541,0.0925001 -0.955501,0.1399 -1.5065,0.1399 -1.4204,0 -2.5093,-0.3207 -3.2669,-0.957701 -0.7554,-0.6392 -1.1342,-1.5495 -1.1342,-2.731 0,-1.1686 0.3573,-2.0941 1.074,-2.7784 0.7166,-0.6822 1.7001,-1.0244 2.9484,-1.0244 1.1513,0 2.0165,0.2927 2.5976,0.8737 0.581,0.5833 0.8694,1.4204 0.8694,2.5137l0 0.7941zm-2.2576 -1.33c-0.0107,-0.4756 -0.1291,-0.8328 -0.3529,-1.0717 -0.2217,-0.2411 -0.5682,-0.3594 -1.0395,-0.3594 -0.4369,0 -0.7963,0.1119 -1.0782,0.34 -0.2819,0.226 -0.439,0.5897 -0.4735,1.0911l2.9441 0z"/>
   <path id="_136651104" class="fil3" d="M62.0726 40.866l-2.2575 0 0 5.5417 -2.2705 0 0 -5.5417 -2.2576 0 0 -1.5388 6.7856 0 0 1.5388zm8.107 2.4211l-5.1952 0c0.0344,0.5553 0.2453,0.979201 0.6349,1.2741 0.3874,0.2927 0.959801,0.4412 1.7174,0.4412 0.4799,0 0.942601,-0.0861 1.3924,-0.2583 0.4498,-0.1743 0.8049,-0.3572 1.0674,-0.5552l0.2518 0 0 1.8207c-0.5143,0.2066 -0.996401,0.3551 -1.4505,0.4476 -0.4541,0.0925001 -0.955501,0.1399 -1.5065,0.1399 -1.4204,0 -2.5093,-0.3207 -3.2669,-0.957701 -0.7554,-0.6392 -1.1342,-1.5495 -1.1342,-2.731 0,-1.1686 0.3573,-2.0941 1.074,-2.7784 0.7166,-0.6822 1.7001,-1.0244 2.9484,-1.0244 1.1513,0 2.0165,0.2927 2.5976,0.8737 0.581,0.5833 0.8694,1.4204 0.8694,2.5137l0 0.7941zm-2.2576 -1.33c-0.0107,-0.4756 -0.1291,-0.8328 -0.3529,-1.0717 -0.2217,-0.2411 -0.5682,-0.3594 -1.0395,-0.3594 -0.4369,0 -0.7963,0.1119 -1.0782,0.34 -0.2819,0.226 -0.439,0.5897 -0.4735,1.0911l2.9441 0zm11.262 4.4506l-2.6492 0 -1.513 -2.1177 -1.5516 2.1177 -2.5976 0 2.7934 -3.5381 -2.7482 -3.5424 2.6471 0 1.4892 2.0811 1.4936 -2.0811 2.6041 0 -2.7548 3.4865 2.787 3.594zm8.3847 0l-2.2683 0 0 -3.0194 -2.6106 0 0 3.0194 -2.2704 0 0 -7.0805 2.2704 0 0 2.4405 2.6106 0 0 -2.4405 2.2683 0 0 7.0805zm9.38101 -3.5381c0,1.1643 -0.3379,2.0833 -1.0179,2.7526 -0.6779,0.6714 -1.6313,1.0072 -2.858,1.0072 -1.2289,0 -2.1823,-0.3358 -2.8602,-1.0072 -0.6779,-0.6693 -1.018,-1.5883 -1.018,-2.7526 0,-1.1707 0.3422,-2.0918 1.0245,-2.7611 0.6822,-0.6672 1.6334,-1.0029 2.8537,-1.0029 1.2353,0 2.1908,0.3379 2.8644,1.0093 0.6758,0.6736 1.0115,1.5904 1.0115,2.7547zm-2.7934 1.7217c0.1485,-0.1808 0.2582,-0.3981 0.3314,-0.6521 0.0732,-0.2539 0.1119,-0.6069 0.1119,-1.0567 0,-0.4153 -0.0387,-0.764 -0.1141,-1.0459 -0.0753,-0.2819 -0.1807,-0.5057 -0.3163,-0.6758 -0.1334,-0.1721 -0.2949,-0.2926 -0.4842,-0.3637 -0.1894,-0.0731 -0.3939,-0.1076 -0.6112,-0.1076 -0.2196,0 -0.4132,0.028 -0.5833,0.0883001 -0.1721,0.0581 -0.3335,0.1764 -0.4885,0.3529 -0.1399,0.1636 -0.2496,0.3895 -0.3314,0.6736 -0.0818,0.2863 -0.1227,0.6457 -0.1227,1.0782 0,0.3874 0.0344,0.7231 0.1055,1.0072 0.0731,0.282 0.1764,0.5101 0.3163,0.6822 0.1335,0.1658 0.2949,0.2841 0.4821,0.3594 0.1872,0.0775 0.4003,0.1141 0.6392,0.1141 0.2066,0 0.4024,-0.0344 0.5897,-0.1033 0.1872,-0.0689 0.3464,-0.1872 0.4756,-0.3508zm11.4385 1.8164l-2.2705 0 0 -5.4987 -1.8723 0c-0.0129,0.3164 -0.0215,0.5617 -0.028,0.7361 -0.0065,0.1743 -0.0151,0.3766 -0.0215,0.6069 -0.0301,0.6779 -0.0861,1.2288 -0.1722,1.6528 -0.0839,0.424 -0.1894,0.7704 -0.3207,1.0395 -0.1269,0.2733 -0.2625,0.4906 -0.4067,0.6499 -0.1442,0.1593 -0.2905,0.2991 -0.439,0.4154 -0.1679,0.1355 -0.3874,0.2431 -0.6586,0.3228 -0.2711,0.0796 -0.5316,0.1205 -0.7834,0.1205 -0.1979,0 -0.3981,-0.0086 -0.6004,-0.0237 -0.2023,-0.015 -0.3207,-0.0215 -0.3594,-0.0215l0 -1.8164 0.0689 0c0.0172,0 0.0473,0.0022 0.0882001,0.0065 0.0431,0.0043 0.0861,0.0064 0.127,0.0064 0.1097,0 0.2217,-0.0107 0.3379,-0.0323 0.1162,-0.0193 0.2109,-0.0667 0.2862,-0.1377 0.2819,-0.269 0.4692,-0.6069 0.5639,-1.0115 0.0946001,-0.4067 0.1635,-1.005 0.2066,-1.8013 0.015,-0.2927 0.0322,-0.6306 0.0495,-1.0072 0.0172,-0.3788 0.0322,-0.807 0.043,-1.287l6.1615 0 0 7.0805zm9.38111 -3.5381c0,1.1643 -0.3379,2.0833 -1.0179,2.7526 -0.6779,0.6714 -1.6313,1.0072 -2.858,1.0072 -1.2289,0 -2.1823,-0.3358 -2.8602,-1.0072 -0.6779,-0.6693 -1.018,-1.5883 -1.018,-2.7526 0,-1.1707 0.3422,-2.0918 1.0245,-2.7611 0.6822,-0.6672 1.6334,-1.0029 2.8537,-1.0029 1.2353,0 2.1908,0.3379 2.8644,1.0093 0.6758,0.6736 1.0115,1.5904 1.0115,2.7547zm-2.7934 1.7217c0.1485,-0.1808 0.2582,-0.3981 0.3314,-0.6521 0.0732,-0.2539 0.1119,-0.6069 0.1119,-1.0567 0,-0.4153 -0.0387,-0.764 -0.1141,-1.0459 -0.0753,-0.2819 -0.1807,-0.5057 -0.3163,-0.6758 -0.1334,-0.1721 -0.2949,-0.2926 -0.4842,-0.3637 -0.1894,-0.0731 -0.3939,-0.1076 -0.6112,-0.1076 -0.2196,0 -0.4132,0.028 -0.5833,0.0883001 -0.1721,0.0581 -0.3335,0.1764 -0.4885,0.3529 -0.1399,0.1636 -0.2496,0.3895 -0.3314,0.6736 -0.0818,0.2863 -0.1227,0.6457 -0.1227,1.0782 0,0.3874 0.0344,0.7231 0.1055,1.0072 0.0731,0.282 0.1764,0.5101 0.3163,0.6822 0.1335,0.1658 0.2949,0.2841 0.4821,0.3594 0.1872,0.0775 0.4003,0.1141 0.6392,0.1141 0.2066,0 0.4024,-0.0344 0.5897,-0.1033 0.1872,-0.0689 0.3464,-0.1872 0.4756,-0.3508zm10.1451 -3.6887l-3.4542 0 0 5.5051 -2.2704 0 0 -7.0805 5.7246 0 0 1.5754zm8.292 5.5051l-2.1994 0 0 -4.3322 -3.0775 4.3322 -1.8788 0 0 -7.0805 2.2016 0 0 3.8782 2.8494 -3.8782 2.1047 0 0 7.0805zm9.29931 0l-2.1994 0 0 -4.3322 -3.0775 4.3322 -1.8788 0 0 -7.0805 2.2016 0 0 3.8782 2.8494 -3.8782 2.1047 0 0 7.0805z"/>
   <polygon id="_136653960" class="fil1" points="62.005,25.1904 62.9311,25.1904 62.9311,26.5133 62.005,26.5133 "/>
   <path id="_136654032" class="fil0" d="M44.4637 14.3422c1.7511,3.2371 2.4289,6.0361 2.498,9.19911 0.0288,1.3204 0.1318,2.6597 -0.1253,4.1921 -0.5131,3.0584 -2.2588,6.2931 -4.45,9.22371 -3.1072,4.1558 -7.3861,7.6453 -12.6912,8.6793 -1.1125,0.2282 -2.1621,0.4157 -2.986,0.6157 -1.5934,0.2206 -3.2339,0.279 -4.903,0.1569 -7.5965,-0.5555 -14.0729,-4.7002 -17.8916,-10.653 4.8764,4.2279 11.6953,10.4638 18.1601,7.4174 3.4061,-1.6051 4.3484,-6.0757 6.2141,-7.9786 1.2998,-1.3257 2.6025,-1.8747 3.185,-2.485 0.7617,-0.7978 1.9821,-2.1658 2.6256,-3.6689 0.8122,-1.8968 2.7104,-6.2105 4.4658,-7.2547 1.4825,-0.881901 1.4791,-0.251 1.7224,1.2512 0.3932,2.2644 -1.3856,5.2935 -2.5018,7.1913 -0.3939,0.6699 -2.8942,4.1231 -1.9317,4.3912 1.0617,0.2959 1.8188,-0.958301 2.265,-1.496 1.1764,-1.4173 3.4139,-2.1194 3.9962,-2.5956 0.0335,-1.4046 0.0796,-2.7721 1.7993,-5.5458 -0.3075,-2.2737 -0.6853,-2.6754 0.0021,-4.809 -0.8467,-1.7111 -1.1236,-2.3199 -0.976301,-3.8582 0.0634,-0.6624 0.155,-2.0325 0.7927,-2.1158 0.242,-0.0315 0.4882,0.0241 0.7306,0.1427z"/>
   <path id="_136654104" class="fil1" d="M2.5426 32.1294c-1.751,-3.237 -2.4289,-6.0361 -2.498,-9.19901 -0.0288,-1.3204 -0.1317,-2.6597 0.1254,-4.1922 0.513,-3.0583 2.2588,-6.2931 4.4499,-9.22371 3.1073,-4.1558 7.3862,-7.6453 12.6913,-8.6792 1.1125,-0.2282 2.162,-0.4157 2.9859,-0.6157 1.5934,-0.2207 3.234,-0.279 4.903,-0.157 7.5966,0.5555 14.073,4.7002 17.8917,10.6531 -4.8765,-4.228 -11.6954,-10.4638 -18.1602,-7.4174 -3.406,1.605 -4.3483,6.0757 -6.2141,7.9785 -1.2998,1.3257 -2.6025,1.8748 -3.185,2.485 -0.7616,0.7979 -1.982,2.1658 -2.6256,3.6689 -0.8122,1.8968 -2.7103,6.2105 -4.4658,7.2548 -1.4824,0.881901 -1.479,0.2509 -1.7224,-1.2513 -0.3932,-2.2644 1.3857,-5.2934 2.5019,-7.1913 0.3939,-0.6699 2.8942,-4.1231 1.9317,-4.3912 -1.0617,-0.2958 -1.8188,0.958301 -2.2651,1.496 -1.1763,1.4174 -3.4138,2.1194 -3.9962,2.5956 -0.0334,1.4046 -0.0795,2.7722 -1.7992,5.5459 0.3075,2.2736 0.6852,2.6753 -0.0022,4.809 0.8467,1.7111 1.1237,2.3198 0.976301,3.8581 -0.0633,0.6624 -0.1549,2.0325 -0.7926,2.1158 -0.242,0.0316 -0.4882,-0.024 -0.7307,-0.1427z"/>
   <path id="_136654176" class="fil1" d="M34.3011 4.6107c0.3939,0.2274 0.5289,0.7311 0.3015,1.125 -0.2275,0.394 -0.7312,0.5289 -1.1251,0.3015 -0.3939,-0.2274 -0.5289,-0.7311 -0.3014,-1.1251 0.2274,-0.3939 0.7311,-0.5289 1.125,-0.3014z"/>
   <path id="_136654248" class="fil1" d="M42.1813 12.5308c0.2275,0.3939 0.0925001,0.897601 -0.3014,1.1251 -0.394,0.2274 -0.897601,0.0924001 -1.1251,-0.3015 -0.2274,-0.3939 -0.0924001,-0.897601 0.3015,-1.125 0.3939,-0.2275 0.897601,-0.0925001 1.125,0.3014z"/>
   <path id="_136654320" class="fil1" d="M12.623 41.9402c-0.3939,-0.2274 -0.5289,-0.7311 -0.3015,-1.125 0.2275,-0.394 0.7311,-0.5289 1.125,-0.3015 0.394,0.2274 0.5289,0.7311 0.3015,1.1251 -0.2274,0.3939 -0.7311,0.5288 -1.125,0.3014z"/>
   <path id="_136654392" class="fil1" d="M4.7427 34.0201c-0.2274,-0.3939 -0.0924001,-0.897601 0.3015,-1.1251 0.3939,-0.2274 0.897601,-0.0924001 1.125,0.3015 0.2275,0.3939 0.0925001,0.897601 -0.3014,1.125 -0.3939,0.2275 -0.897601,0.0925001 -1.1251,-0.3014z"/>
  </g>
 </g>
</svg>
