<?xml version="1.0" encoding="UTF-8" standalone="no"?>
<!-- Generator: Adobe Illustrator 12.0.0, SVG Export Plug-In . SVG Version: 6.00 Build 51448)  -->

<svg
   xmlns:dc="http://purl.org/dc/elements/1.1/"
   xmlns:cc="http://creativecommons.org/ns#"
   xmlns:rdf="http://www.w3.org/1999/02/22-rdf-syntax-ns#"
   xmlns:svg="http://www.w3.org/2000/svg"
   xmlns="http://www.w3.org/2000/svg"
   xmlns:sodipodi="http://sodipodi.sourceforge.net/DTD/sodipodi-0.dtd"
   xmlns:inkscape="http://www.inkscape.org/namespaces/inkscape"
   version="1.1"
   width="152"
   height="161"
   viewBox="0 0 152 161"
   overflow="visible"
   enable-background="new 0 0 152 161"
   xml:space="preserve"
   id="svg3457"
   inkscape:version="0.91 r13725"
   sodipodi:docname="timeline_icons.svg"><metadata
     id="metadata3519"><rdf:RDF><cc:Work
         rdf:about=""><dc:format>image/svg+xml</dc:format><dc:type
           rdf:resource="http://purl.org/dc/dcmitype/StillImage" /><dc:title></dc:title></cc:Work></rdf:RDF></metadata><defs
     id="defs3517" /><sodipodi:namedview
     pagecolor="#ffffff"
     bordercolor="#666666"
     borderopacity="1"
     objecttolerance="10"
     gridtolerance="10"
     guidetolerance="10"
     inkscape:pageopacity="0"
     inkscape:pageshadow="2"
     inkscape:window-width="1116"
     inkscape:window-height="691"
     id="namedview3515"
     showgrid="false"
     inkscape:zoom="3.8136646"
     inkscape:cx="89.821803"
     inkscape:cy="80.5"
     inkscape:window-x="77"
     inkscape:window-y="9"
     inkscape:window-maximized="0"
     inkscape:current-layer="svg3457" /><g
     id="runner"><g
       id="Shape_13_copy"><g
         id="g3461"><path
           d="m 48,103 -9,0 c -1.657,0 -2,1.343 -2,3 l 0,2.666 c 0,0.772 0.333,2 0.333,2 l 6,6 6,-6 c 0,0 0.667,-1.228 0.667,-2 L 50,106 c 0,-1.657 -0.343,-3 -2,-3 z"
           id="path3463"
           inkscape:connector-curvature="0"
           style="fill:#76b7e4" /></g></g><g
       id="Shape_453"><g
         id="g3466"><path
           d="m 41,110 1,0 0,-3 -1,0 0,3 z m 2,2 1,0 0,-7 -1,0 0,7 z m 2,-5 0,3 1,0 0,-3 -1,0 z"
           id="path3468"
           inkscape:connector-curvature="0"
           style="fill:#c9eaf7" /></g></g></g><g
     id="to_left"><g
       id="Shape_20"><g
         id="g3472"><rect
           x="22"
           y="42"
           width="12"
           height="12"
           id="rect3474"
           style="fill:#c3c1c1" /></g></g><g
       id="Shape_21"><g
         id="g3477"><polygon
           points="29,50.828 29,45.172 26.171,48 "
           id="polygon3479"
           style="fill:#ffffff" /></g></g></g><g
     id="to_right"><g
       id="Shape_20_1_"><g
         id="g3483"><rect
           x="41"
           y="42"
           width="12"
           height="12"
           id="rect3485"
           style="fill:#c4c2be" /></g></g><g
       id="Shape_20_copy"><g
         id="g3488"><rect
           x="41.984001"
           y="42.984001"
           width="10.031"
           height="10.031"
           id="rect3490"
           style="fill:#ffffff" /></g></g><g
       id="Shape_21_1_"><g
         id="g3493"><polygon
           points="46,50.828 48.829,48 46,45.172 "
           id="polygon3495"
           style="fill:#aba8a2" /></g></g></g><g
     id="Shape_20_3_"
     enable-background="new    "><g
       id="Shape_20_2_"><g
         id="g3499"><rect
           x="78"
           y="46"
           fill="#76B7E4"
           width="39"
           height="9"
           id="rect3501" /></g></g></g><g
     id="_x7C__x7C__x7C__1_"><g
       id="_x3C__copy_1_"><g
         id="drag_right"><g
           id="g3506"><path
             d="m 128,45 -9,0 c -0.553,0 -1,0.447 -1,1 l 0,15.75 5.75,-5.75 4.25,0 c 0.553,0 1,-0.447 1,-1 l 0,-9 c 0,-0.553 -0.447,-1 -1,-1 z"
             id="path3508"
             inkscape:connector-curvature="0"/></g></g><g
         id="drag_left"><g
           id="g3511"><path
             d="m 76,45 -9,0 c -0.552,0 -1,0.447 -1,1 l 0,9 c 0,0.553 0.448,1 1,1 L 71.25,56 77,61.75 77,46 c 0,-0.553 -0.448,-1 -1,-1 z"
             id="path3513"
             inkscape:connector-curvature="0"/></g></g></g></g></svg>